<svg xmlns="http://www.w3.org/2000/svg" viewBox="0 0 390 844" fill="none">
  <rect width="390" height="844" rx="40" fill="#000"/>

  <rect x="0" y="0" width="390" height="44" fill="#000"/>
  <text x="195" y="28" text-anchor="middle" fill="#fff" font-family="system-ui, sans-serif" font-size="14" font-weight="600">9:41</text>

  <rect x="16" y="60" width="36" height="36" rx="8" fill="#0A0A12"/>
  <path d="M37 70 h-10 m5-5 l-5 5 5 5" stroke="#c0b0d0" stroke-width="1.8" fill="none" stroke-linecap="round"/>
  <text x="64" y="84" fill="#fff" font-family="system-ui, sans-serif" font-size="24" font-weight="700">Bookmarks</text>

  <!-- Bookmark items -->
  <rect x="16" y="112" width="358" height="56" rx="10" fill="#0A0A12" stroke="#1A1A3A" stroke-width="1"/>
  <rect x="32" y="128" width="16" height="16" rx="2" fill="#9B5CFF" opacity="0.3" stroke="#9B5CFF" stroke-width="1.5"/>
  <text x="56" y="136" fill="#fff" font-family="system-ui, sans-serif" font-size="14" font-weight="500">Example Domain</text>
  <text x="56" y="152" fill="#6a5a8a" font-family="system-ui, sans-serif" font-size="12">example.com</text>
  <path d="M344 134 l12 12 m0-12 l-12 12" stroke="#6a5a8a" stroke-width="1.5" stroke-linecap="round"/>

  <rect x="16" y="176" width="358" height="56" rx="10" fill="#0A0A12" stroke="#1A1A3A" stroke-width="1"/>
  <rect x="32" y="192" width="16" height="16" rx="2" fill="#9B5CFF" opacity="0.3" stroke="#9B5CFF" stroke-width="1.5"/>
  <text x="56" y="200" fill="#fff" font-family="system-ui, sans-serif" font-size="14" font-weight="500">YouTube</text>
  <text x="56" y="216" fill="#6a5a8a" font-family="system-ui, sans-serif" font-size="12">youtube.com</text>
  <path d="M344 198 l12 12 m0-12 l-12 12" stroke="#6a5a8a" stroke-width="1.5" stroke-linecap="round"/>

  <rect x="16" y="240" width="358" height="56" rx="10" fill="#0A0A12" stroke="#1A1A3A" stroke-width="1"/>
  <rect x="32" y="256" width="16" height="16" rx="2" fill="#9B5CFF" opacity="0.3" stroke="#9B5CFF" stroke-width="1.5"/>
  <text x="56" y="264" fill="#fff" font-family="system-ui, sans-serif" font-size="14" font-weight="500">GitHub</text>
  <text x="56" y="280" fill="#6a5a8a" font-family="system-ui, sans-serif" font-size="12">github.com</text>
  <path d="M344 262 l12 12 m0-12 l-12 12" stroke="#6a5a8a" stroke-width="1.5" stroke-linecap="round"/>

  <rect x="16" y="304" width="358" height="56" rx="10" fill="#0A0A12" stroke="#1A1A3A" stroke-width="1"/>
  <rect x="32" y="320" width="16" height="16" rx="2" fill="#9B5CFF" opacity="0.3" stroke="#9B5CFF" stroke-width="1.5"/>
  <text x="56" y="328" fill="#fff" font-family="system-ui, sans-serif" font-size="14" font-weight="500">Wikipedia</text>
  <text x="56" y="344" fill="#6a5a8a" font-family="system-ui, sans-serif" font-size="12">wikipedia.org</text>
  <path d="M344 326 l12 12 m0-12 l-12 12" stroke="#6a5a8a" stroke-width="1.5" stroke-linecap="round"/>

  <rect x="140" y="828" width="110" height="5" rx="2.5" fill="#1A1A3A"/>
</svg>
