<svg xmlns="http://www.w3.org/2000/svg" viewBox="0 0 390 844" fill="none">
  <defs>
    <linearGradient id="bgGrad" x1="0%" y1="0%" x2="0%" y2="100%">
      <stop offset="0%" stop-color="#080818"/>
      <stop offset="100%" stop-color="#0a0a1f"/>
    </linearGradient>
    <filter id="cardShadow">
      <feDropShadow dx="0" dy="2" stdDeviation="4" flood-color="#000" flood-opacity="0.2"/>
    </filter>
  </defs>

  <rect width="390" height="844" rx="40" fill="url(#bgGrad)"/>
  <rect x="0" y="0" width="390" height="44" fill="url(#bgGrad)"/>
  <text x="195" y="28" text-anchor="middle" fill="#f8fafc" font-family="'SF Pro Text', system-ui, sans-serif" font-size="14" font-weight="600">9:41</text>

  <!-- Header -->
  <text x="30" y="80" fill="#f8fafc" font-family="'SF Pro Display', system-ui, sans-serif" font-size="24" font-weight="800">Bookmarks</text>
  <text x="30" y="100" fill="#94a3b8" font-family="'SF Pro Text', system-ui, sans-serif" font-size="12">4 saved pages</text>

  <!-- Search -->
  <rect x="30" y="115" width="330" height="36" rx="18" fill="rgba(15,15,35,0.5)" stroke="rgba(99,102,241,0.08)" stroke-width="1"/>
  <circle cx="50" cy="133" r="8" fill="none" stroke="#64748b" stroke-width="1.5"/>
  <line x1="56" y1="139" x2="60" y2="143" stroke="#64748b" stroke-width="1.5" stroke-linecap="round"/>
  <text x="70" y="138" fill="#64748b" font-family="'SF Pro Text', system-ui, sans-serif" font-size="12">Search bookmarks...</text>

  <!-- Bookmark cards -->
  <g filter="url(#cardShadow)">
    <rect x="30" y="170" width="330" height="80" rx="14" fill="rgba(15,15,35,0.5)" stroke="rgba(99,102,241,0.06)" stroke-width="1"/>
  </g>
  <circle cx="65" cy="210" r="20" fill="rgba(245,158,11,0.1)"/>
  <g transform="translate(55,200)"><rect x="2" y="0" width="16" height="14" rx="2" fill="none" stroke="#fbbf24" stroke-width="1.5"/><path d="M0 14 L18 14" stroke="#fbbf24" stroke-width="1.5"/></g>
  <text x="100" y="200" fill="#f8fafc" font-family="'SF Pro Text', system-ui, sans-serif" font-size="14" font-weight="600">Amazon</text>
  <text x="100" y="218" fill="#64748b" font-family="'SF Mono', monospace" font-size="11">amazon.com</text>
  <text x="100" y="235" fill="#94a3b8" font-family="'SF Pro Text', system-ui, sans-serif" font-size="10">Shopping — Added 2 days ago</text>
  <circle cx="340" cy="210" r="12" fill="rgba(225,29,72,0.1)"/>
  <g transform="translate(334,204)"><path d="M6 0 C3 0 0 3 0 6 C0 12 6 14 6 14 C6 14 12 12 12 6 C12 3 9 0 6 0Z" fill="#f43f5e" opacity="0.7"/></g>

  <g filter="url(#cardShadow)">
    <rect x="30" y="260" width="330" height="80" rx="14" fill="rgba(15,15,35,0.5)" stroke="rgba(99,102,241,0.06)" stroke-width="1"/>
  </g>
  <circle cx="65" cy="300" r="20" fill="rgba(234,67,53,0.1)"/>
  <g transform="translate(55,290)"><rect x="1" y="2" width="16" height="12" rx="2" fill="none" stroke="#ea4335" stroke-width="1.5"/><path d="M1 4 L9 9 L17 4" fill="none" stroke="#ea4335" stroke-width="1.2"/></g>
  <text x="100" y="290" fill="#f8fafc" font-family="'SF Pro Text', system-ui, sans-serif" font-size="14" font-weight="600">Gmail</text>
  <text x="100" y="308" fill="#64748b" font-family="'SF Mono', monospace" font-size="11">mail.google.com</text>
  <text x="100" y="325" fill="#94a3b8" font-family="'SF Pro Text', system-ui, sans-serif" font-size="10">Email — Added 5 days ago</text>
  <circle cx="340" cy="300" r="12" fill="rgba(225,29,72,0.1)"/>
  <g transform="translate(334,294)"><path d="M6 0 C3 0 0 3 0 6 C0 12 6 14 6 14 C6 14 12 12 12 6 C12 3 9 0 6 0Z" fill="#f43f5e" opacity="0.7"/></g>

  <g filter="url(#cardShadow)">
    <rect x="30" y="350" width="330" height="80" rx="14" fill="rgba(15,15,35,0.5)" stroke="rgba(99,102,241,0.06)" stroke-width="1"/>
  </g>
  <circle cx="65" cy="390" r="20" fill="rgba(66,133,244,0.1)"/>
  <g transform="translate(55,380)"><rect x="1" y="0" width="16" height="16" rx="2" fill="none" stroke="#4285f4" stroke-width="1.5"/><line x1="4" y1="4" x2="14" y2="4" stroke="#4285f4" stroke-width="1"/><line x1="4" y1="7" x2="14" y2="7" stroke="#4285f4" stroke-width="1"/><line x1="4" y1="10" x2="10" y2="10" stroke="#4285f4" stroke-width="1"/></g>
  <text x="100" y="380" fill="#f8fafc" font-family="'SF Pro Text', system-ui, sans-serif" font-size="14" font-weight="600">Google News</text>
  <text x="100" y="398" fill="#64748b" font-family="'SF Mono', monospace" font-size="11">news.google.com</text>
  <text x="100" y="415" fill="#94a3b8" font-family="'SF Pro Text', system-ui, sans-serif" font-size="10">News — Added 1 week ago</text>
  <circle cx="340" cy="390" r="12" fill="rgba(225,29,72,0.1)"/>
  <g transform="translate(334,384)"><path d="M6 0 C3 0 0 3 0 6 C0 12 6 14 6 14 C6 14 12 12 12 6 C12 3 9 0 6 0Z" fill="#f43f5e" opacity="0.7"/></g>

  <g filter="url(#cardShadow)">
    <rect x="30" y="440" width="330" height="80" rx="14" fill="rgba(15,15,35,0.5)" stroke="rgba(99,102,241,0.06)" stroke-width="1"/>
  </g>
  <circle cx="65" cy="480" r="20" fill="rgba(29,185,84,0.1)"/>
  <g transform="translate(57,472)"><circle cx="8" cy="8" r="7" fill="none" stroke="#1db954" stroke-width="1.5"/><path d="M5 5 L8 8 L12 4" fill="none" stroke="#1db954" stroke-width="1.5" stroke-linecap="round"/></g>
  <text x="100" y="470" fill="#f8fafc" font-family="'SF Pro Text', system-ui, sans-serif" font-size="14" font-weight="600">Spotify</text>
  <text x="100" y="488" fill="#64748b" font-family="'SF Mono', monospace" font-size="11">spotify.com</text>
  <text x="100" y="505" fill="#94a3b8" font-family="'SF Pro Text', system-ui, sans-serif" font-size="10">Music — Added 2 weeks ago</text>
  <circle cx="340" cy="480" r="12" fill="rgba(225,29,72,0.1)"/>
  <g transform="translate(334,474)"><path d="M6 0 C3 0 0 3 0 6 C0 12 6 14 6 14 C6 14 12 12 12 6 C12 3 9 0 6 0Z" fill="#f43f5e" opacity="0.7"/></g>

  <!-- Voice hint -->
  <rect x="60" y="560" width="270" height="36" rx="18" fill="rgba(15,15,35,0.5)" stroke="rgba(6,182,212,0.2)" stroke-width="1"/>
  <text x="195" y="583" text-anchor="middle" fill="#22d3ee" font-family="'SF Pro Text', system-ui, sans-serif" font-size="11">Say "bookmark this" to save any page</text>

  <rect x="0" y="750" width="390" height="94" fill="#080818"/>
  <rect x="30" y="760" width="330" height="60" rx="16" fill="rgba(15,15,35,0.5)"/>
  <text x="85" y="795" text-anchor="middle" fill="#22d3ee" font-family="'SF Pro Text', system-ui, sans-serif" font-size="10" font-weight="600">Home</text>
  <text x="195" y="795" text-anchor="middle" fill="#64748b" font-family="'SF Pro Text', system-ui, sans-serif" font-size="10">Browser</text>
  <text x="305" y="795" text-anchor="middle" fill="#64748b" font-family="'SF Pro Text', system-ui, sans-serif" font-size="10">Settings</text>
</svg>
