<svg xmlns="http://www.w3.org/2000/svg" viewBox="0 0 390 844" fill="none">
  <rect width="390" height="844" rx="40" fill="#0B0B1E"/>
  <rect x="0" y="0" width="390" height="44" fill="#0B0B1E"/>
  <text x="195" y="28" text-anchor="middle" fill="white" font-family="system-ui" font-size="14" font-weight="600">9:41</text>

  <!-- Header -->
  <text x="30" y="80" fill="white" font-family="system-ui" font-size="24" font-weight="800">Bookmarks</text>
  <text x="30" y="100" fill="#B0B0D0" font-family="system-ui" font-size="12">4 saved pages</text>

  <!-- Search -->
  <rect x="30" y="115" width="330" height="36" rx="18" fill="#13132D" stroke="#1a1a3e" stroke-width="1"/>
  <circle cx="50" cy="133" r="8" fill="none" stroke="#6A6A8A" stroke-width="1.5"/>
  <line x1="56" y1="139" x2="60" y2="143" stroke="#6A6A8A" stroke-width="1.5" stroke-linecap="round"/>
  <text x="70" y="138" fill="#6A6A8A" font-family="system-ui" font-size="12">Search bookmarks...</text>

  <!-- Bookmark cards -->
  <rect x="30" y="170" width="330" height="80" rx="14" fill="#13132D" stroke="#1a1a3e" stroke-width="1"/>
  <circle cx="65" cy="210" r="20" fill="#FF990020"/>
  <text x="65" y="216" text-anchor="middle" fill="#FF9900" font-family="system-ui" font-size="18">&#128722;</text>
  <text x="100" y="200" fill="white" font-family="system-ui" font-size="14" font-weight="600">Amazon</text>
  <text x="100" y="218" fill="#6A6A8A" font-family="system-ui" font-size="11">amazon.com</text>
  <text x="100" y="235" fill="#B0B0D0" font-family="system-ui" font-size="10">Shopping - Added 2 days ago</text>
  <circle cx="340" cy="210" r="12" fill="#FF2D7820"/>
  <text x="340" y="215" text-anchor="middle" fill="#FF2D78" font-family="system-ui" font-size="14">&#9829;</text>

  <rect x="30" y="260" width="330" height="80" rx="14" fill="#13132D" stroke="#1a1a3e" stroke-width="1"/>
  <circle cx="65" cy="300" r="20" fill="#EA433520"/>
  <text x="65" y="306" text-anchor="middle" fill="#EA4335" font-family="system-ui" font-size="18">&#9993;</text>
  <text x="100" y="290" fill="white" font-family="system-ui" font-size="14" font-weight="600">Gmail</text>
  <text x="100" y="308" fill="#6A6A8A" font-family="system-ui" font-size="11">mail.google.com</text>
  <text x="100" y="325" fill="#B0B0D0" font-family="system-ui" font-size="10">Email - Added 5 days ago</text>
  <circle cx="340" cy="300" r="12" fill="#FF2D7820"/>
  <text x="340" y="305" text-anchor="middle" fill="#FF2D78" font-family="system-ui" font-size="14">&#9829;</text>

  <rect x="30" y="350" width="330" height="80" rx="14" fill="#13132D" stroke="#1a1a3e" stroke-width="1"/>
  <circle cx="65" cy="390" r="20" fill="#4285F420"/>
  <text x="65" y="396" text-anchor="middle" fill="#4285F4" font-family="system-ui" font-size="18">&#128240;</text>
  <text x="100" y="380" fill="white" font-family="system-ui" font-size="14" font-weight="600">Google News</text>
  <text x="100" y="398" fill="#6A6A8A" font-family="system-ui" font-size="11">news.google.com</text>
  <text x="100" y="415" fill="#B0B0D0" font-family="system-ui" font-size="10">News - Added 1 week ago</text>
  <circle cx="340" cy="390" r="12" fill="#FF2D7820"/>
  <text x="340" y="395" text-anchor="middle" fill="#FF2D78" font-family="system-ui" font-size="14">&#9829;</text>

  <rect x="30" y="440" width="330" height="80" rx="14" fill="#13132D" stroke="#1a1a3e" stroke-width="1"/>
  <circle cx="65" cy="480" r="20" fill="#1DB95420"/>
  <text x="65" y="486" text-anchor="middle" fill="#1DB954" font-family="system-ui" font-size="18">&#9835;</text>
  <text x="100" y="470" fill="white" font-family="system-ui" font-size="14" font-weight="600">Spotify</text>
  <text x="100" y="488" fill="#6A6A8A" font-family="system-ui" font-size="11">spotify.com</text>
  <text x="100" y="505" fill="#B0B0D0" font-family="system-ui" font-size="10">Music - Added 2 weeks ago</text>
  <circle cx="340" cy="480" r="12" fill="#FF2D7820"/>
  <text x="340" y="485" text-anchor="middle" fill="#FF2D78" font-family="system-ui" font-size="14">&#9829;</text>

  <!-- Voice hint -->
  <rect x="60" y="560" width="270" height="36" rx="18" fill="#13132D" stroke="#00E5FF" stroke-width="1"/>
  <text x="195" y="583" text-anchor="middle" fill="#00E5FF" font-family="system-ui" font-size="11">Say "bookmark this" to save any page</text>

  <rect x="0" y="750" width="390" height="94" fill="#0B0B1E"/>
  <rect x="30" y="760" width="330" height="60" rx="16" fill="#13132D"/>
  <text x="85" y="795" text-anchor="middle" fill="#00E5FF" font-family="system-ui" font-size="10" font-weight="600">Home</text>
  <text x="195" y="795" text-anchor="middle" fill="#6A6A8A" font-family="system-ui" font-size="10">Browser</text>
  <text x="305" y="795" text-anchor="middle" fill="#6A6A8A" font-family="system-ui" font-size="10">Settings</text>
</svg>
