<svg xmlns="http://www.w3.org/2000/svg" viewBox="0 0 390 844" fill="none">
  <rect width="390" height="844" rx="40" fill="#000"/>

  <rect x="0" y="0" width="390" height="44" fill="#000"/>
  <text x="195" y="28" text-anchor="middle" fill="#fff" font-family="system-ui, sans-serif" font-size="14" font-weight="600">9:41</text>

  <!-- Header -->
  <rect x="0" y="44" width="390" height="52" fill="#0A0A12"/>
  <line x1="0" y1="96" x2="390" y2="96" stroke="#1A1A3A" stroke-width="1"/>
  <rect x="22" y="58" width="6" height="12" rx="3" stroke="#9B5CFF" stroke-width="1.8" fill="none"/>
  <path d="M17 66 a7 7 0 0014 0" stroke="#9B5CFF" stroke-width="1.8" fill="none"/>
  <path d="M77 66 h-10 m5-5 l-5 5 5 5" stroke="#c0b0d0" stroke-width="1.8" fill="none" stroke-linecap="round"/>
  <path d="M110 66 h10 m-5-5 l5 5-5 5" stroke="#c0b0d0" stroke-width="1.8" fill="none" stroke-linecap="round"/>
  <rect x="140" y="56" width="175" height="36" rx="18" fill="#000" stroke="#1A1A3A" stroke-width="1"/>
  <rect x="150" y="67" width="8" height="7" rx="1" stroke="#00E676" stroke-width="1.2" fill="none"/>
  <path d="M152 67 v-2 a3 3 0 016 0 v2" stroke="#00E676" stroke-width="1.2" fill="none"/>
  <text x="164" y="79" fill="#c0b0d0" font-family="system-ui, sans-serif" font-size="12">example.com</text>
  <path d="M332 62 v16 l-4-3-4 3 v-16 a2 2 0 014-2h0a2 2 0 014 2z" stroke="#c0b0d0" stroke-width="1.5" fill="none"/>
  <path d="M364 64 l-3 3 h-3 v6 h3 l3 3 v-12z" stroke="#c0b0d0" stroke-width="1.3" fill="none"/>
  <path d="M370 65 a5 5 0 010 10" stroke="#c0b0d0" stroke-width="1.3" fill="none"/>

  <!-- Tab bar -->
  <rect x="0" y="96" width="390" height="36" fill="#000"/>
  <line x1="0" y1="132" x2="390" y2="132" stroke="#1A1A3A" stroke-width="1"/>
  <rect x="8" y="100" width="140" height="28" rx="6" fill="#12122A" stroke="#9B5CFF" stroke-width="1"/>
  <text x="18" y="118" fill="#fff" font-family="system-ui, sans-serif" font-size="11">Example Domain</text>
  <path d="M135 110 l6 6 m0-6 l-6 6" stroke="#6a5a8a" stroke-width="1.2" stroke-linecap="round"/>
  <rect x="154" y="100" width="120" height="28" rx="6" fill="#0A0A12" stroke="#1A1A3A" stroke-width="1"/>
  <text x="164" y="118" fill="#6a5a8a" font-family="system-ui, sans-serif" font-size="11">Google</text>
  <path d="M286 110 v10 m-5-5 h10" stroke="#c0b0d0" stroke-width="1.5" stroke-linecap="round"/>

  <!-- Iframe content -->
  <rect x="0" y="132" width="390" height="650" fill="white"/>
  <text x="25" y="166" fill="#333" font-family="Georgia, serif" font-size="18" font-weight="700">Example Domain</text>
  <rect x="20" y="185" width="350" height="1" fill="#e0e0e0"/>
  <text x="20" y="210" fill="#555" font-family="Georgia, serif" font-size="14">This domain is for use in illustrative</text>
  <text x="20" y="228" fill="#555" font-family="Georgia, serif" font-size="14">examples in documents. You may use this</text>
  <text x="20" y="246" fill="#555" font-family="Georgia, serif" font-size="14">domain in literature without prior</text>
  <text x="20" y="264" fill="#555" font-family="Georgia, serif" font-size="14">coordination or asking for permission.</text>
  <text x="20" y="296" fill="#3882F6" font-family="Georgia, serif" font-size="14">More information...</text>

  <rect x="0" y="782" width="390" height="62" fill="#000"/>
  <rect x="140" y="828" width="110" height="5" rx="2.5" fill="#1A1A3A"/>
</svg>
