<svg xmlns="http://www.w3.org/2000/svg" viewBox="0 0 390 844" fill="none">
  <rect width="390" height="844" rx="40" fill="#0B0B1E"/>
  <rect x="0" y="0" width="390" height="44" fill="#0B0B1E"/>
  <text x="195" y="28" text-anchor="middle" fill="white" font-family="system-ui" font-size="14" font-weight="600">9:41</text>

  <!-- Top bar -->
  <rect x="0" y="50" width="390" height="55" fill="#13132D"/>
  <circle cx="35" cy="77" r="15" fill="#1C1C3A"/>
  <text x="35" y="82" text-anchor="middle" fill="white" font-family="system-ui" font-size="14">←</text>
  <rect x="60" y="62" width="270" height="30" rx="15" fill="#1C1C3A"/>
  <text x="75" y="82" fill="#6A6A8A" font-family="system-ui" font-size="12">amazon.com</text>
  <circle cx="355" cy="77" r="15" fill="#1C1C3A"/>
  <text x="355" y="82" text-anchor="middle" fill="#7C5CFC" font-family="system-ui" font-size="14">☆</text>

  <!-- Page content -->
  <rect x="0" y="105" width="390" height="580" fill="white"/>

  <rect x="15" y="115" width="360" height="40" fill="#232F3E"/>
  <text x="195" y="140" text-anchor="middle" fill="white" font-family="system-ui" font-size="14" font-weight="600">amazon.com</text>

  <rect x="15" y="165" width="360" height="35" rx="8" fill="#F3F3F3"/>
  <text x="30" y="188" fill="#999" font-family="system-ui" font-size="12">Search for anything...</text>

  <rect x="15" y="210" width="170" height="180" rx="8" fill="#F8F8F8"/>
  <rect x="25" y="220" width="150" height="100" rx="4" fill="#EEE"/>
  <text x="100" y="280" text-anchor="middle" fill="#666" font-family="system-ui" font-size="10">Product Image</text>
  <text x="25" y="340" fill="#333" font-family="system-ui" font-size="11" font-weight="600">Sony WH-1000XM5</text>
  <text x="25" y="358" fill="#B12704" font-family="system-ui" font-size="12" font-weight="700">$278.00</text>
  <text x="25" y="375" fill="#007600" font-family="system-ui" font-size="10">Prime</text>

  <rect x="205" y="210" width="170" height="180" rx="8" fill="#F8F8F8"/>
  <rect x="215" y="220" width="150" height="100" rx="4" fill="#EEE"/>
  <text x="290" y="280" text-anchor="middle" fill="#666" font-family="system-ui" font-size="10">Product Image</text>
  <text x="215" y="340" fill="#333" font-family="system-ui" font-size="11" font-weight="600">Bose QC Ultra</text>
  <text x="215" y="358" fill="#B12704" font-family="system-ui" font-size="12" font-weight="700">$349.00</text>
  <text x="215" y="375" fill="#007600" font-family="system-ui" font-size="10">Prime</text>

  <rect x="15" y="405" width="360" height="40" rx="8" fill="#FFD814"/>
  <text x="195" y="430" text-anchor="middle" fill="#0F1111" font-family="system-ui" font-size="13" font-weight="600">Add to Cart</text>

  <!-- Suggestions bar -->
  <rect x="0" y="685" width="390" height="65" fill="#13132D"/>
  <text x="20" y="705" fill="#7C5CFC" font-family="system-ui" font-size="10" font-weight="600">SUGGESTIONS</text>
  <rect x="15" y="715" width="80" height="28" rx="14" fill="#1C1C3A"/>
  <text x="55" y="734" text-anchor="middle" fill="#00E5FF" font-family="system-ui" font-size="11">Add to cart</text>
  <rect x="105" y="715" width="80" height="28" rx="14" fill="#1C1C3A"/>
  <text x="145" y="734" text-anchor="middle" fill="#00E5FF" font-family="system-ui" font-size="11">Sort by price</text>
  <rect x="195" y="715" width="80" height="28" rx="14" fill="#1C1C3A"/>
  <text x="235" y="734" text-anchor="middle" fill="#00E5FF" font-family="system-ui" font-size="11">Read reviews</text>

  <!-- Bottom nav -->
  <rect x="0" y="750" width="390" height="94" fill="#0B0B1E"/>
  <rect x="30" y="760" width="330" height="70" rx="20" fill="#13132D"/>
  <text x="85" y="800" text-anchor="middle" fill="#6A6A8A" font-family="system-ui" font-size="10">Home</text>
  <text x="195" y="800" text-anchor="middle" fill="#00E5FF" font-family="system-ui" font-size="10">Browser</text>
  <text x="305" y="800" text-anchor="middle" fill="#6A6A8A" font-family="system-ui" font-size="10">Settings</text>
</svg>