<svg xmlns="http://www.w3.org/2000/svg" viewBox="0 0 390 844" fill="none">
  <defs>
    <linearGradient id="bgGrad" x1="0%" y1="0%" x2="0%" y2="100%">
      <stop offset="0%" stop-color="#080818"/>
      <stop offset="100%" stop-color="#0a0a1f"/>
    </linearGradient>
    <filter id="cardShadow">
      <feDropShadow dx="0" dy="2" stdDeviation="6" flood-color="#000" flood-opacity="0.25"/>
    </filter>
  </defs>

  <rect width="390" height="844" rx="40" fill="url(#bgGrad)"/>
  <rect x="0" y="0" width="390" height="44" fill="url(#bgGrad)"/>
  <text x="195" y="28" text-anchor="middle" fill="#f8fafc" font-family="'SF Pro Text', system-ui, sans-serif" font-size="14" font-weight="600">9:41</text>

  <!-- Browser chrome -->
  <rect x="0" y="44" width="390" height="50" fill="rgba(15,15,40,0.9)"/>
  <rect x="15" y="54" width="290" height="30" rx="15" fill="#080818" stroke="rgba(99,102,241,0.1)" stroke-width="1"/>
  <circle cx="32" cy="69" r="6" fill="none" stroke="#64748b" stroke-width="1.5"/>
  <line x1="36" y1="73" x2="40" y2="77" stroke="#64748b" stroke-width="1.5" stroke-linecap="round"/>
  <text x="48" y="73" fill="#94a3b8" font-family="'SF Mono', monospace" font-size="11">amazon.com</text>
  <rect x="320" y="57" width="55" height="26" rx="13" fill="#e94560"/>
  <text x="347" y="74" text-anchor="middle" fill="white" font-family="'SF Pro Text', system-ui, sans-serif" font-size="11" font-weight="600">Go</text>

  <!-- Page content — Amazon-like -->
  <rect x="0" y="94" width="390" height="180" fill="#13132d"/>
  <text x="30" y="125" fill="#fbbf24" font-family="'SF Pro Display', system-ui, sans-serif" font-size="18" font-weight="700">amazon</text>
  <rect x="30" y="140" width="330" height="36" rx="8" fill="#f8fafc"/>
  <text x="45" y="163" fill="#94a3b8" font-family="'SF Pro Text', system-ui, sans-serif" font-size="12">Search Amazon</text>
  <rect x="310" y="140" width="50" height="36" rx="8" fill="#fbbf24"/>
  <g transform="translate(327,152)"><circle cx="6" cy="6" r="5" fill="none" stroke="#000" stroke-width="2"/><line x1="10" y1="10" x2="13" y2="13" stroke="#000" stroke-width="2" stroke-linecap="round"/></g>

  <!-- Product cards -->
  <g filter="url(#cardShadow)">
    <rect x="15" y="290" width="170" height="220" rx="12" fill="rgba(15,15,35,0.6)" stroke="rgba(99,102,241,0.08)" stroke-width="1"/>
  </g>
  <rect x="30" y="300" width="140" height="100" rx="8" fill="rgba(99,102,241,0.06)"/>
  <g transform="translate(75,330)"><rect x="0" y="5" width="30" height="20" rx="3" fill="rgba(99,102,241,0.12)"/><circle cx="15" cy="12" r="8" fill="none" stroke="rgba(99,102,241,0.2)" stroke-width="1.5"/></g>
  <text x="100" y="420" text-anchor="middle" fill="#f8fafc" font-family="'SF Pro Text', system-ui, sans-serif" font-size="11" font-weight="500">Sony WH-1000XM5</text>
  <text x="100" y="440" text-anchor="middle" fill="#22d3ee" font-family="'SF Pro Text', system-ui, sans-serif" font-size="14" font-weight="700">$79.99</text>
  <text x="100" y="458" text-anchor="middle" fill="#fbbf24" font-family="'SF Pro Text', system-ui, sans-serif" font-size="11">4.5 stars</text>
  <rect x="50" y="470" width="100" height="26" rx="13" fill="rgba(245,158,11,0.15)" stroke="rgba(245,158,11,0.3)" stroke-width="1"/>
  <text x="100" y="487" text-anchor="middle" fill="#fbbf24" font-family="'SF Pro Text', system-ui, sans-serif" font-size="10" font-weight="700">Add to Cart</text>

  <g filter="url(#cardShadow)">
    <rect x="205" y="290" width="170" height="220" rx="12" fill="rgba(15,15,35,0.6)" stroke="rgba(99,102,241,0.08)" stroke-width="1"/>
  </g>
  <rect x="220" y="300" width="140" height="100" rx="8" fill="rgba(99,102,241,0.06)"/>
  <g transform="translate(265,330)"><rect x="0" y="5" width="30" height="20" rx="3" fill="rgba(99,102,241,0.12)"/><circle cx="15" cy="12" r="8" fill="none" stroke="rgba(99,102,241,0.2)" stroke-width="1.5"/></g>
  <text x="290" y="420" text-anchor="middle" fill="#f8fafc" font-family="'SF Pro Text', system-ui, sans-serif" font-size="11" font-weight="500">AirPods Max</text>
  <text x="290" y="440" text-anchor="middle" fill="#22d3ee" font-family="'SF Pro Text', system-ui, sans-serif" font-size="14" font-weight="700">$549.00</text>
  <text x="290" y="458" text-anchor="middle" fill="#fbbf24" font-family="'SF Pro Text', system-ui, sans-serif" font-size="11">4.8 stars</text>
  <rect x="240" y="470" width="100" height="26" rx="13" fill="rgba(245,158,11,0.15)" stroke="rgba(245,158,11,0.3)" stroke-width="1"/>
  <text x="290" y="487" text-anchor="middle" fill="#fbbf24" font-family="'SF Pro Text', system-ui, sans-serif" font-size="10" font-weight="700">Add to Cart</text>

  <!-- Floating assistant -->
  <g filter="url(#cardShadow)">
    <rect x="20" y="560" width="350" height="80" rx="16" fill="rgba(15,15,35,0.7)" stroke="rgba(99,102,241,0.15)" stroke-width="1"/>
  </g>
  <circle cx="55" cy="600" r="18" fill="#e94560"/>
  <text x="55" y="606" text-anchor="middle" fill="white" font-family="'SF Pro Text', system-ui, sans-serif" font-size="13" font-weight="700">AI</text>
  <text x="85" y="590" fill="#e94560" font-family="'SF Pro Text', system-ui, sans-serif" font-size="10" font-weight="600">VOICENAV ASSISTANT</text>
  <text x="85" y="610" fill="#f8fafc" font-family="'SF Pro Text', system-ui, sans-serif" font-size="12">Found 2 products. Sony at $79.99</text>
  <text x="85" y="628" fill="#94a3b8" font-family="'SF Pro Text', system-ui, sans-serif" font-size="11">is the best value. Say "add to cart"</text>

  <!-- Voice button -->
  <circle cx="195" cy="700" r="28" fill="#e11d48"/>
  <rect x="188" y="688" width="14" height="20" rx="7" fill="white"/>
  <path d="M185 707 Q185 715 195 715 Q205 715 205 707" fill="none" stroke="white" stroke-width="2" stroke-linecap="round"/>

  <!-- Bottom bar -->
  <rect x="0" y="750" width="390" height="94" fill="#080818"/>
  <rect x="30" y="760" width="330" height="60" rx="16" fill="rgba(15,15,35,0.5)" stroke="rgba(99,102,241,0.06)" stroke-width="1"/>
  <text x="85" y="795" text-anchor="middle" fill="#64748b" font-family="'SF Pro Text', system-ui, sans-serif" font-size="10">Home</text>
  <text x="195" y="795" text-anchor="middle" fill="#22d3ee" font-family="'SF Pro Text', system-ui, sans-serif" font-size="10" font-weight="600">Browser</text>
  <text x="305" y="795" text-anchor="middle" fill="#64748b" font-family="'SF Pro Text', system-ui, sans-serif" font-size="10">Settings</text>
</svg>
