<svg xmlns="http://www.w3.org/2000/svg" viewBox="0 0 390 844" fill="none">
  <rect width="390" height="844" rx="40" fill="#0B0B1E"/>
  <rect x="0" y="0" width="390" height="44" fill="#0B0B1E"/>
  <text x="195" y="28" text-anchor="middle" fill="white" font-family="system-ui" font-size="14" font-weight="600">9:41</text>

  <!-- Browser chrome -->
  <rect x="0" y="44" width="390" height="50" fill="#13132D"/>
  <rect x="15" y="54" width="290" height="30" rx="15" fill="#0B0B1E" stroke="#1a1a3e" stroke-width="1"/>
  <circle cx="32" cy="69" r="6" fill="none" stroke="#6A6A8A" stroke-width="1.5"/>
  <line x1="36" y1="73" x2="40" y2="77" stroke="#6A6A8A" stroke-width="1.5" stroke-linecap="round"/>
  <text x="48" y="73" fill="#B0B0D0" font-family="system-ui" font-size="11">amazon.com</text>
  <rect x="320" y="57" width="55" height="26" rx="13" fill="#7C5CFC"/>
  <text x="347" y="74" text-anchor="middle" fill="white" font-family="system-ui" font-size="11" font-weight="600">Go</text>

  <!-- Page content -->
  <rect x="0" y="94" width="390" height="180" fill="#232F3E"/>
  <text x="30" y="125" fill="#FF9900" font-family="system-ui" font-size="18" font-weight="700">amazon</text>
  <rect x="30" y="140" width="330" height="36" rx="4" fill="#FFFFFF"/>
  <text x="45" y="163" fill="#888" font-family="system-ui" font-size="12">Search Amazon</text>
  <rect x="310" y="140" width="50" height="36" rx="4" fill="#FF9900"/>
  <text x="335" y="163" text-anchor="middle" fill="#000" font-family="system-ui" font-size="14">&#128269;</text>

  <!-- Product cards -->
  <rect x="15" y="290" width="170" height="220" rx="10" fill="#13132D" stroke="#1a1a3e" stroke-width="1"/>
  <rect x="30" y="300" width="140" height="100" rx="6" fill="#1a1a3e"/>
  <text x="100" y="355" text-anchor="middle" fill="#6A6A8A" font-family="system-ui" font-size="28">&#127911;</text>
  <text x="100" y="420" text-anchor="middle" fill="white" font-family="system-ui" font-size="11" font-weight="500">Sony WH-1000XM5</text>
  <text x="100" y="440" text-anchor="middle" fill="#00E5FF" font-family="system-ui" font-size="14" font-weight="700">$79.99</text>
  <text x="100" y="458" text-anchor="middle" fill="#FF9900" font-family="system-ui" font-size="11">&#9733;&#9733;&#9733;&#9733;&#9734; 4.5</text>
  <rect x="50" y="470" width="100" height="26" rx="13" fill="#FF9900"/>
  <text x="100" y="487" text-anchor="middle" fill="#000" font-family="system-ui" font-size="10" font-weight="700">Add to Cart</text>

  <rect x="205" y="290" width="170" height="220" rx="10" fill="#13132D" stroke="#1a1a3e" stroke-width="1"/>
  <rect x="220" y="300" width="140" height="100" rx="6" fill="#1a1a3e"/>
  <text x="290" y="355" text-anchor="middle" fill="#6A6A8A" font-family="system-ui" font-size="28">&#127911;</text>
  <text x="290" y="420" text-anchor="middle" fill="white" font-family="system-ui" font-size="11" font-weight="500">AirPods Max</text>
  <text x="290" y="440" text-anchor="middle" fill="#00E5FF" font-family="system-ui" font-size="14" font-weight="700">$549.00</text>
  <text x="290" y="458" text-anchor="middle" fill="#FF9900" font-family="system-ui" font-size="11">&#9733;&#9733;&#9733;&#9733;&#9733; 4.8</text>
  <rect x="240" y="470" width="100" height="26" rx="13" fill="#FF9900"/>
  <text x="290" y="487" text-anchor="middle" fill="#000" font-family="system-ui" font-size="10" font-weight="700">Add to Cart</text>

  <!-- Floating assistant -->
  <rect x="20" y="560" width="350" height="80" rx="16" fill="#13132D" stroke="#7C5CFC" stroke-width="1.5"/>
  <circle cx="55" cy="600" r="18" fill="#7C5CFC"/>
  <text x="55" y="605" text-anchor="middle" fill="white" font-family="system-ui" font-size="14">&#129302;</text>
  <text x="85" y="590" fill="#7C5CFC" font-family="system-ui" font-size="10" font-weight="600">VOICENAV ASSISTANT</text>
  <text x="85" y="610" fill="white" font-family="system-ui" font-size="12">Found 2 products. Sony at $79.99</text>
  <text x="85" y="628" fill="#B0B0D0" font-family="system-ui" font-size="11">is the best value. Say "add to cart"</text>

  <!-- Voice button -->
  <circle cx="195" cy="700" r="28" fill="#FF2D78"/>
  <rect x="188" y="688" width="14" height="20" rx="7" fill="white"/>
  <path d="M185 707 Q185 715 195 715 Q205 715 205 707" fill="none" stroke="white" stroke-width="2" stroke-linecap="round"/>

  <!-- Bottom bar -->
  <rect x="0" y="750" width="390" height="94" fill="#0B0B1E"/>
  <rect x="30" y="760" width="330" height="60" rx="16" fill="#13132D" stroke="#1a1a3e" stroke-width="1"/>
  <text x="85" y="795" text-anchor="middle" fill="#6A6A8A" font-family="system-ui" font-size="10">Home</text>
  <text x="195" y="795" text-anchor="middle" fill="#00E5FF" font-family="system-ui" font-size="10" font-weight="600">Browser</text>
  <text x="305" y="795" text-anchor="middle" fill="#6A6A8A" font-family="system-ui" font-size="10">Settings</text>
</svg>
