<svg xmlns="http://www.w3.org/2000/svg" viewBox="0 0 390 844" fill="none">
  <rect width="390" height="844" rx="40" fill="#0B0B1E"/>
  <rect x="0" y="0" width="390" height="44" fill="#0B0B1E"/>
  <text x="195" y="28" text-anchor="middle" fill="white" font-family="system-ui" font-size="14" font-weight="600">9:41</text>

  <!-- Logo -->
  <circle cx="195" cy="100" r="35" fill="#7C5CFC"/>
  <circle cx="195" cy="100" r="40" stroke="#7C5CFC" stroke-width="2" fill="none" opacity="0.4"/>
  <circle cx="195" cy="100" r="47" stroke="#7C5CFC" stroke-width="1" fill="none" opacity="0.2"/>
  <text x="195" y="108" text-anchor="middle" fill="white" font-family="system-ui" font-size="28" font-weight="700">VN</text>

  <!-- Title -->
  <text x="195" y="170" text-anchor="middle" fill="white" font-family="system-ui" font-size="24" font-weight="700">VoiceNav</text>
  <text x="195" y="195" text-anchor="middle" fill="#B0B0D0" font-family="system-ui" font-size="13">Speak. Browse. Done.</text>

  <!-- Mic button -->
  <circle cx="195" cy="270" r="45" fill="#FF2D78"/>
  <circle cx="195" cy="270" r="50" stroke="#FF2D78" stroke-width="2" fill="none" opacity="0.4"/>
  <circle cx="195" cy="270" r="57" stroke="#FF2D78" stroke-width="1" fill="none" opacity="0.2"/>
  <path d="M185 255 L185 275 Q185 285 195 285 Q205 285 205 275 L205 255" stroke="white" stroke-width="3" fill="none" stroke-linecap="round"/>
  <line x1="195" y1="285" x2="195" y2="292" stroke="white" stroke-width="3" stroke-linecap="round"/>
  <line x1="188" y1="292" x2="202" y2="292" stroke="white" stroke-width="3" stroke-linecap="round"/>

  <!-- Listening state -->
  <rect x="60" y="340" width="270" height="50" rx="25" fill="#13132D"/>
  <text x="195" y="370" text-anchor="middle" fill="#00E5FF" font-family="system-ui" font-size="14" font-weight="600">Listening...</text>

  <!-- Quick actions -->
  <rect x="30" y="420" width="160" height="70" rx="16" fill="#13132D"/>
  <text x="110" y="450" text-anchor="middle" fill="#7C5CFC" font-family="system-ui" font-size="12" font-weight="600">Quick Task</text>
  <text x="110" y="472" text-anchor="middle" fill="white" font-family="system-ui" font-size="13">Go to Amazon</text>

  <rect x="200" y="420" width="160" height="70" rx="16" fill="#13132D"/>
  <text x="280" y="450" text-anchor="middle" fill="#7C5CFC" font-family="system-ui" font-size="12" font-weight="600">Quick Task</text>
  <text x="280" y="472" text-anchor="middle" fill="white" font-family="system-ui" font-size="13">Read News</text>

  <rect x="30" y="500" width="160" height="70" rx="16" fill="#13132D"/>
  <text x="110" y="530" text-anchor="middle" fill="#7C5CFC" font-family="system-ui" font-size="12" font-weight="600">Quick Task</text>
  <text x="110" y="552" text-anchor="middle" fill="white" font-family="system-ui" font-size="13">Check Email</text>

  <rect x="200" y="500" width="160" height="70" rx="16" fill="#13132D"/>
  <text x="280" y="530" text-anchor="middle" fill="#7C5CFC" font-family="system-ui" font-size="12" font-weight="600">Quick Task</text>
  <text x="280" y="552" text-anchor="middle" fill="white" font-family="system-ui" font-size="13">Shopping</text>

  <!-- Quick links -->
  <text x="45" y="610" fill="#7C5CFC" font-family="system-ui" font-size="11" font-weight="600">QUICK LINKS</text>
  <rect x="30" y="620" width="330" height="50" rx="12" fill="#13132D"/>
  <text x="65" y="650" fill="white" font-family="system-ui" font-size="13">Google</text>
  <text x="165" y="650" fill="white" font-family="system-ui" font-size="13">YouTube</text>
  <text x="275" y="650" fill="white" font-family="system-ui" font-size="13">GitHub</text>

  <!-- Recent history -->
  <text x="45" y="700" fill="#7C5CFC" font-family="system-ui" font-size="11" font-weight="600">RECENT</text>
  <rect x="30" y="710" width="330" height="45" rx="12" fill="#13132D"/>
  <text x="55" y="738" fill="#B0B0D0" font-family="system-ui" font-size="12">amazon.com — Last visited 2h ago</text>

  <!-- Bottom nav -->
  <rect x="0" y="750" width="390" height="94" fill="#0B0B1E"/>
  <rect x="30" y="760" width="330" height="70" rx="20" fill="#13132D"/>
  <text x="85" y="800" text-anchor="middle" fill="#00E5FF" font-family="system-ui" font-size="10">Home</text>
  <text x="195" y="800" text-anchor="middle" fill="#6A6A8A" font-family="system-ui" font-size="10">Browser</text>
  <text x="305" y="800" text-anchor="middle" fill="#6A6A8A" font-family="system-ui" font-size="10">Settings</text>
</svg>