<svg xmlns="http://www.w3.org/2000/svg" viewBox="0 0 390 844" fill="none">
  <defs>
    <linearGradient id="bgGrad" x1="0%" y1="0%" x2="0%" y2="100%">
      <stop offset="0%" stop-color="#080818"/>
      <stop offset="100%" stop-color="#0a0a1f"/>
    </linearGradient>
    <linearGradient id="accentGrad" x1="0%" y1="0%" x2="100%" y2="100%">
      <stop offset="0%" stop-color="#6366f1"/>
      <stop offset="100%" stop-color="#818cf8"/>
    </linearGradient>
    <linearGradient id="micBtnGrad" x1="0%" y1="0%" x2="100%" y2="100%">
      <stop offset="0%" stop-color="#e11d48"/>
      <stop offset="100%" stop-color="#f43f5e"/>
    </linearGradient>
    <filter id="glow">
      <feGaussianBlur stdDeviation="8" result="blur"/>
      <feMerge><feMergeNode in="blur"/><feMergeNode in="SourceGraphic"/></feMerge>
    </filter>
    <filter id="cardShadow">
      <feDropShadow dx="0" dy="2" stdDeviation="6" flood-color="#000" flood-opacity="0.25"/>
    </filter>
  </defs>

  <rect width="390" height="844" rx="40" fill="url(#bgGrad)"/>
  <rect x="0" y="0" width="390" height="44" fill="url(#bgGrad)"/>
  <text x="195" y="28" text-anchor="middle" fill="#f8fafc" font-family="'SF Pro Text', system-ui, sans-serif" font-size="14" font-weight="600">9:41</text>
  <circle cx="340" cy="22" r="4" fill="#22c55e"/>

  <!-- Top buttons -->
  <rect x="300" y="50" width="36" height="36" rx="18" fill="rgba(30,27,75,0.5)" stroke="rgba(99,102,241,0.1)" stroke-width="1"/>
  <g transform="translate(310,60)"><circle cx="8" cy="8" r="6" fill="none" stroke="#94a3b8" stroke-width="1.5"/><circle cx="8" cy="8" r="2" fill="#94a3b8"/></g>
  <rect x="256" y="50" width="36" height="36" rx="18" fill="rgba(30,27,75,0.5)" stroke="rgba(99,102,241,0.1)" stroke-width="1"/>
  <g transform="translate(266,60)"><path d="M8 1l2.2 5.4H16l-4.4 3.2 1.7 5.4L8 11.8 2.7 15l1.7-5.4L0 6.4h5.8z" fill="#94a3b8" opacity="0.6"/></g>

  <!-- Logo -->
  <circle cx="195" cy="130" r="45" fill="rgba(99,102,241,0.08)"/>
  <circle cx="195" cy="130" r="30" fill="rgba(99,102,241,0.12)"/>
  <rect x="185" y="110" width="20" height="32" rx="10" fill="url(#accentGrad)"/>
  <path d="M180 140 Q180 155 195 155 Q210 155 210 140" fill="none" stroke="url(#accentGrad)" stroke-width="2.5" stroke-linecap="round"/>
  <line x1="195" y1="155" x2="195" y2="162" stroke="url(#accentGrad)" stroke-width="2.5" stroke-linecap="round"/>

  <text x="195" y="200" text-anchor="middle" fill="#f8fafc" font-family="'SF Pro Display', system-ui, sans-serif" font-size="26" font-weight="800" letter-spacing="-0.5">VoiceNav</text>
  <text x="195" y="222" text-anchor="middle" fill="#818cf8" font-family="'SF Pro Text', system-ui, sans-serif" font-size="12" font-weight="500">Voice Browser — 116 Languages</text>

  <!-- Mic button -->
  <circle cx="195" cy="290" r="48" fill="url(#micBtnGrad)" filter="url(#glow)"/>
  <circle cx="195" cy="290" r="54" stroke="#f43f5e" stroke-width="2" fill="none" opacity="0.25"/>
  <circle cx="195" cy="290" r="62" stroke="#f43f5e" stroke-width="1" fill="none" opacity="0.1"/>
  <rect x="185" y="272" width="20" height="28" rx="10" fill="white"/>
  <path d="M180 298 Q180 310 195 310 Q210 310 210 298" fill="none" stroke="white" stroke-width="2.5" stroke-linecap="round"/>
  <line x1="195" y1="310" x2="195" y2="316" stroke="white" stroke-width="2.5" stroke-linecap="round"/>
  <line x1="188" y1="316" x2="202" y2="316" stroke="white" stroke-width="2.5" stroke-linecap="round"/>

  <!-- Listening pill -->
  <rect x="120" y="360" width="150" height="32" rx="16" fill="rgba(30,27,75,0.6)" stroke="rgba(6,182,212,0.3)" stroke-width="1"/>
  <circle cx="140" cy="376" r="4" fill="#22d3ee">
    <animate attributeName="opacity" values="1;0.3;1" dur="1.5s" repeatCount="indefinite"/>
  </circle>
  <text x="175" y="381" text-anchor="middle" fill="#22d3ee" font-family="'SF Pro Text', system-ui, sans-serif" font-size="12" font-weight="500">Listening...</text>

  <!-- URL Input -->
  <rect x="30" y="410" width="330" height="44" rx="22" fill="rgba(30,27,75,0.5)" stroke="rgba(99,102,241,0.08)" stroke-width="1"/>
  <circle cx="52" cy="432" r="10" fill="none" stroke="#64748b" stroke-width="1.5"/>
  <line x1="59" y1="439" x2="65" y2="445" stroke="#64748b" stroke-width="1.5" stroke-linecap="round"/>
  <text x="75" y="437" fill="#64748b" font-family="'SF Pro Text', system-ui, sans-serif" font-size="13">Enter website or search...</text>

  <!-- Quick Tasks -->
  <text x="45" y="490" fill="#818cf8" font-family="'SF Pro Text', system-ui, sans-serif" font-size="11" font-weight="700" letter-spacing="2">QUICK TASKS</text>

  <g filter="url(#cardShadow)">
    <rect x="30" y="500" width="100" height="72" rx="14" fill="rgba(30,27,75,0.5)" stroke="rgba(99,102,241,0.08)" stroke-width="1"/>
  </g>
  <circle cx="80" cy="524" r="14" fill="rgba(245,158,11,0.1)"/>
  <g transform="translate(72,516)"><rect x="2" y="0" width="12" height="10" rx="2" fill="none" stroke="#fbbf24" stroke-width="1.5"/><path d="M0 10 L14 10" stroke="#fbbf24" stroke-width="1.5"/></g>
  <text x="80" y="556" text-anchor="middle" fill="#f8fafc" font-family="'SF Pro Text', system-ui, sans-serif" font-size="11" font-weight="600">Shop</text>

  <g filter="url(#cardShadow)">
    <rect x="145" y="500" width="100" height="72" rx="14" fill="rgba(30,27,75,0.5)" stroke="rgba(99,102,241,0.08)" stroke-width="1"/>
  </g>
  <circle cx="195" cy="524" r="14" fill="rgba(34,197,94,0.1)"/>
  <g transform="translate(187,516)"><rect x="0" y="4" width="8" height="8" rx="1" fill="none" stroke="#22c55e" stroke-width="1.5"/><rect x="8" y="0" width="8" height="8" rx="1" fill="none" stroke="#22c55e" stroke-width="1.5"/></g>
  <text x="195" y="556" text-anchor="middle" fill="#f8fafc" font-family="'SF Pro Text', system-ui, sans-serif" font-size="11" font-weight="600">Compare</text>

  <g filter="url(#cardShadow)">
    <rect x="260" y="500" width="100" height="72" rx="14" fill="rgba(30,27,75,0.5)" stroke="rgba(99,102,241,0.08)" stroke-width="1"/>
  </g>
  <circle cx="310" cy="524" r="14" fill="rgba(66,133,244,0.1)"/>
  <g transform="translate(302,516)"><rect x="1" y="0" width="12" height="12" rx="2" fill="none" stroke="#4285f4" stroke-width="1.5"/><line x1="4" y1="3" x2="10" y2="3" stroke="#4285f4" stroke-width="1"/><line x1="4" y1="6" x2="10" y2="6" stroke="#4285f4" stroke-width="1"/><line x1="4" y1="9" x2="8" y2="9" stroke="#4285f4" stroke-width="1"/></g>
  <text x="310" y="556" text-anchor="middle" fill="#f8fafc" font-family="'SF Pro Text', system-ui, sans-serif" font-size="11" font-weight="600">Read News</text>

  <g filter="url(#cardShadow)">
    <rect x="30" y="582" width="100" height="72" rx="14" fill="rgba(30,27,75,0.5)" stroke="rgba(99,102,241,0.08)" stroke-width="1"/>
  </g>
  <circle cx="80" cy="606" r="14" fill="rgba(234,67,53,0.1)"/>
  <g transform="translate(72,598)"><rect x="1" y="2" width="12" height="8" rx="1.5" fill="none" stroke="#ea4335" stroke-width="1.5"/><path d="M1 3.5 L7 7 L13 3.5" fill="none" stroke="#ea4335" stroke-width="1.2"/></g>
  <text x="80" y="638" text-anchor="middle" fill="#f8fafc" font-family="'SF Pro Text', system-ui, sans-serif" font-size="11" font-weight="600">Email</text>

  <g filter="url(#cardShadow)">
    <rect x="145" y="582" width="100" height="72" rx="14" fill="rgba(30,27,75,0.5)" stroke="rgba(99,102,241,0.08)" stroke-width="1"/>
  </g>
  <circle cx="195" cy="606" r="14" fill="rgba(239,68,68,0.1)"/>
  <g transform="translate(189,600)"><polygon points="4,0 12,6 4,12" fill="#ef4444"/></g>
  <text x="195" y="638" text-anchor="middle" fill="#f8fafc" font-family="'SF Pro Text', system-ui, sans-serif" font-size="11" font-weight="600">Video</text>

  <g filter="url(#cardShadow)">
    <rect x="260" y="582" width="100" height="72" rx="14" fill="rgba(30,27,75,0.5)" stroke="rgba(99,102,241,0.08)" stroke-width="1"/>
  </g>
  <circle cx="310" cy="606" r="14" fill="rgba(156,39,176,0.1)"/>
  <g transform="translate(302,598)"><rect x="1" y="0" width="12" height="14" rx="2" fill="none" stroke="#a855f7" stroke-width="1.5"/><line x1="4" y1="4" x2="10" y2="4" stroke="#a855f7" stroke-width="1"/><line x1="4" y1="7" x2="10" y2="7" stroke="#a855f7" stroke-width="1"/><line x1="4" y1="10" x2="8" y2="10" stroke="#a855f7" stroke-width="1"/></g>
  <text x="310" y="638" text-anchor="middle" fill="#f8fafc" font-family="'SF Pro Text', system-ui, sans-serif" font-size="11" font-weight="600">Read Page</text>

  <!-- Quick Links -->
  <text x="45" y="690" fill="#818cf8" font-family="'SF Pro Text', system-ui, sans-serif" font-size="11" font-weight="700" letter-spacing="2">QUICK LINKS</text>
  <g filter="url(#cardShadow)">
    <rect x="30" y="700" width="330" height="44" rx="14" fill="rgba(30,27,75,0.5)" stroke="rgba(99,102,241,0.08)" stroke-width="1"/>
  </g>
  <text x="75" y="727" fill="#f8fafc" font-family="'SF Pro Text', system-ui, sans-serif" font-size="13" font-weight="500">Google</text>
  <text x="170" y="727" fill="#f8fafc" font-family="'SF Pro Text', system-ui, sans-serif" font-size="13" font-weight="500">YouTube</text>
  <text x="270" y="727" fill="#f8fafc" font-family="'SF Pro Text', system-ui, sans-serif" font-size="13" font-weight="500">Amazon</text>

  <!-- Version -->
  <rect x="145" y="770" width="100" height="22" rx="11" fill="rgba(99,102,241,0.08)" stroke="rgba(99,102,241,0.15)" stroke-width="0.5"/>
  <text x="195" y="785" text-anchor="middle" fill="#818cf8" font-family="'SF Pro Text', system-ui, sans-serif" font-size="10" font-weight="600">v11.0.0</text>

  <rect x="0" y="800" width="390" height="44" fill="#080818"/>
  <rect x="140" y="808" width="110" height="5" rx="2.5" fill="#1e1b4b"/>
</svg>
