<svg xmlns="http://www.w3.org/2000/svg" viewBox="0 0 390 844" fill="none">
  <rect width="390" height="844" rx="40" fill="#000" opacity="0.92"/>

  <text x="195" y="28" text-anchor="middle" fill="#fff" font-family="system-ui, sans-serif" font-size="14" font-weight="600">9:41</text>

  <!-- Floating assistant bubble -->
  <circle cx="340" cy="700" r="28" fill="#9B5CFF"/>
  <rect x="332" y="686" width="8" height="16" rx="4" fill="white"/>
  <path d="M328 698 a8 8 0 0016 0" stroke="white" stroke-width="1.8" fill="none"/>
  <line x1="336" y1="706" x2="336" y2="712" stroke="white" stroke-width="1.8" stroke-linecap="round"/>
  <line x1="332" y1="712" x2="340" y2="712" stroke="white" stroke-width="1.8" stroke-linecap="round"/>

  <!-- Expanded panel -->
  <rect x="220" y="440" width="160" height="240" rx="14" fill="#0A0A12" stroke="#1A1A3A" stroke-width="1"/>
  <!-- Header -->
  <rect x="232" y="452" width="8" height="8" rx="4" fill="#00E676"/>
  <text x="244" y="460" fill="#fff" font-family="system-ui, sans-serif" font-size="12" font-weight="700">VoiceNav</text>
  <path d="M362 452 l6 6 m0-6 l-6 6" stroke="#6a5a8a" stroke-width="1.2" stroke-linecap="round"/>

  <text x="232" y="482" fill="#6a5a8a" font-family="system-ui, sans-serif" font-size="10">Ready</text>

  <!-- Messages -->
  <rect x="232" y="492" width="136" height="24" rx="6" fill="#12122A"/>
  <text x="240" y="508" fill="#c0b0d0" font-family="system-ui, sans-serif" font-size="10">Navigating to youtube</text>

  <rect x="232" y="522" width="136" height="24" rx="6" fill="rgba(155,92,255,0.15)"/>
  <text x="240" y="538" fill="#9B5CFF" font-family="system-ui, sans-serif" font-size="10">Page loaded: YouTube</text>

  <!-- Suggestions -->
  <rect x="232" y="558" width="60" height="20" rx="10" fill="rgba(155,92,255,0.1)" stroke="rgba(155,92,255,0.2)" stroke-width="1"/>
  <text x="262" y="572" text-anchor="middle" fill="#9B5CFF" font-family="system-ui, sans-serif" font-size="9">Search</text>
  <rect x="298" y="558" width="70" height="20" rx="10" fill="rgba(155,92,255,0.1)" stroke="rgba(155,92,255,0.2)" stroke-width="1"/>
  <text x="333" y="572" text-anchor="middle" fill="#9B5CFF" font-family="system-ui, sans-serif" font-size="9">Bookmark</text>

  <!-- Quick actions -->
  <circle cx="270" cy="610" r="16" fill="#12122A"/>
  <rect x="264" y="602" width="6" height="10" rx="3" stroke="#c0b0d0" stroke-width="1.2" fill="none"/>
  <path d="M261 608 a5 5 0 0010 0" stroke="#c0b0d0" stroke-width="1.2" fill="none"/>
  <circle cx="330" cy="610" r="16" fill="#12122A"/>
  <path d="M324 604 h12 m-6-6 v12" stroke="#c0b0d0" stroke-width="1.2" stroke-linecap="round"/>

  <rect x="140" y="828" width="110" height="5" rx="2.5" fill="#1A1A3A"/>
</svg>
