<svg xmlns="http://www.w3.org/2000/svg" viewBox="0 0 390 844" fill="none">
  <rect width="390" height="844" rx="40" fill="#0B0B1E"/>
  <rect x="0" y="0" width="390" height="44" fill="#0B0B1E"/>
  <text x="195" y="28" text-anchor="middle" fill="white" font-family="system-ui" font-size="14" font-weight="600">9:41</text>

  <!-- Header -->
  <text x="195" y="80" text-anchor="middle" fill="white" font-family="system-ui" font-size="22" font-weight="700">Settings</text>

  <!-- Speech -->
  <text x="45" y="125" fill="#00E5FF" font-family="system-ui" font-size="11" font-weight="600">SPEECH</text>

  <rect x="30" y="135" width="330" height="60" rx="12" fill="#13132D"/>
  <text x="55" y="160" fill="white" font-family="system-ui" font-size="15">Language</text>
  <text x="290" y="160" fill="#00E5FF" font-family="system-ui" font-size="14">English</text>
  <text x="55" y="180" fill="#6A6A8A" font-family="system-ui" font-size="12">Voice recognition language</text>

  <rect x="30" y="200" width="330" height="60" rx="12" fill="#13132D"/>
  <text x="55" y="225" fill="white" font-family="system-ui" font-size="15">Speech Rate</text>
  <rect x="200" y="215" width="120" height="6" rx="3" fill="#2A2A4A"/>
  <circle cx="270" cy="218" r="8" fill="#7C5CFC"/>
  <text x="55" y="245" fill="#6A6A8A" font-family="system-ui" font-size="12">1.0x</text>

  <rect x="30" y="265" width="330" height="60" rx="12" fill="#13132D"/>
  <text x="55" y="290" fill="white" font-family="system-ui" font-size="15">Continuous Listening</text>
  <rect x="290" y="280" width="50" height="28" rx="14" fill="#7C5CFC"/>
  <circle cx="322" cy="294" r="10" fill="white"/>
  <text x="55" y="310" fill="#6A6A8A" font-family="system-ui" font-size="12">Always-on voice mode</text>

  <!-- Accessibility -->
  <text x="45" y="365" fill="#00E5FF" font-family="system-ui" font-size="11" font-weight="600">ACCESSIBILITY</text>

  <rect x="30" y="375" width="330" height="60" rx="12" fill="#13132D"/>
  <text x="55" y="400" fill="white" font-family="system-ui" font-size="15">Voice Feedback</text>
  <rect x="290" y="390" width="50" height="28" rx="14" fill="#7C5CFC"/>
  <circle cx="322" cy="404" r="10" fill="white"/>
  <text x="55" y="420" fill="#6A6A8A" font-family="system-ui" font-size="12">Speak confirmations aloud</text>

  <rect x="30" y="440" width="330" height="60" rx="12" fill="#13132D"/>
  <text x="55" y="465" fill="white" font-family="system-ui" font-size="15">Haptic Feedback</text>
  <rect x="290" y="455" width="50" height="28" rx="14" fill="#7C5CFC"/>
  <circle cx="322" cy="469" r="10" fill="white"/>
  <text x="55" y="485" fill="#6A6A8A" font-family="system-ui" font-size="12">Vibrate on actions</text>

  <rect x="30" y="505" width="330" height="60" rx="12" fill="#13132D"/>
  <text x="55" y="530" fill="white" font-family="system-ui" font-size="15">Large Text</text>
  <rect x="290" y="520" width="50" height="28" rx="14" fill="#2A2A4A"/>
  <circle cx="308" cy="534" r="10" fill="white"/>
  <text x="55" y="550" fill="#6A6A8A" font-family="system-ui" font-size="12">Increase text size</text>

  <!-- Voice Shortcuts -->
  <text x="45" y="605" fill="#00E5FF" font-family="system-ui" font-size="11" font-weight="600">VOICE SHORTCUTS</text>

  <rect x="30" y="615" width="330" height="55" rx="12" fill="#13132D"/>
  <text x="55" y="640" fill="white" font-family="system-ui" font-size="15">Manage Shortcuts</text>
  <text x="290" y="640" fill="#6A6A8A" font-family="system-ui" font-size="14">→</text>
  <text x="55" y="660" fill="#6A6A8A" font-family="system-ui" font-size="12">3 shortcuts configured</text>

  <!-- About -->
  <text x="45" y="710" fill="#00E5FF" font-family="system-ui" font-size="11" font-weight="600">ABOUT</text>

  <rect x="30" y="720" width="330" height="55" rx="12" fill="#13132D"/>
  <text x="55" y="745" fill="white" font-family="system-ui" font-size="15">VoiceNav v5</text>
  <text x="55" y="765" fill="#6A6A8A" font-family="system-ui" font-size="12">The Future of Accessible Browsing</text>

  <!-- Bottom nav -->
  <rect x="0" y="750" width="390" height="94" fill="#0B0B1E"/>
  <rect x="30" y="760" width="330" height="70" rx="20" fill="#13132D"/>
  <text x="85" y="800" text-anchor="middle" fill="#6A6A8A" font-family="system-ui" font-size="10">Home</text>
  <text x="195" y="800" text-anchor="middle" fill="#6A6A8A" font-family="system-ui" font-size="10">Browser</text>
  <text x="305" y="800" text-anchor="middle" fill="#00E5FF" font-family="system-ui" font-size="10">Settings</text>
</svg>