<svg xmlns="http://www.w3.org/2000/svg" viewBox="0 0 390 844" fill="none">
  <rect width="390" height="844" rx="40" fill="#000"/>

  <rect x="0" y="0" width="390" height="44" fill="#000"/>
  <text x="195" y="28" text-anchor="middle" fill="#fff" font-family="system-ui, sans-serif" font-size="14" font-weight="600">9:41</text>

  <!-- Header -->
  <rect x="16" y="60" width="36" height="36" rx="8" fill="#0A0A12"/>
  <path d="M37 70 h-10 m5-5 l-5 5 5 5" stroke="#c0b0d0" stroke-width="1.8" fill="none" stroke-linecap="round"/>
  <text x="64" y="84" fill="#fff" font-family="system-ui, sans-serif" font-size="24" font-weight="700">Settings</text>

  <!-- Search Engine -->
  <text x="30" y="125" fill="#6a5a8a" font-family="system-ui, sans-serif" font-size="12" font-weight="600" letter-spacing="0.5">SEARCH ENGINE</text>
  <rect x="16" y="135" width="358" height="44" rx="8" fill="#0A0A12" stroke="#9B5CFF" stroke-width="1"/>
  <text x="32" y="162" fill="#fff" font-family="system-ui, sans-serif" font-size="14">Google</text>
  <path d="M350 152 l6 6-6 6" stroke="#9B5CFF" stroke-width="2" fill="none" stroke-linecap="round"/>
  <rect x="16" y="183" width="358" height="44" rx="8" fill="#0A0A12" stroke="#1A1A3A" stroke-width="1"/>
  <text x="32" y="210" fill="#c0b0d0" font-family="system-ui, sans-serif" font-size="14">DuckDuckGo</text>
  <rect x="16" y="231" width="358" height="44" rx="8" fill="#0A0A12" stroke="#1A1A3A" stroke-width="1"/>
  <text x="32" y="258" fill="#c0b0d0" font-family="system-ui, sans-serif" font-size="14">Bing</text>

  <!-- Voice Language -->
  <text x="30" y="305" fill="#6a5a8a" font-family="system-ui, sans-serif" font-size="12" font-weight="600" letter-spacing="0.5">VOICE LANGUAGE</text>
  <rect x="16" y="315" width="358" height="44" rx="8" fill="#0A0A12" stroke="#1A1A3A" stroke-width="1"/>
  <text x="32" y="342" fill="#fff" font-family="system-ui, sans-serif" font-size="14">English (United States)</text>
  <text x="350" y="342" fill="#6a5a8a" font-family="system-ui, sans-serif" font-size="12">v</text>

  <!-- Theme -->
  <text x="30" y="395" fill="#6a5a8a" font-family="system-ui, sans-serif" font-size="12" font-weight="600" letter-spacing="0.5">THEME</text>
  <rect x="16" y="405" width="358" height="44" rx="8" fill="#0A0A12" stroke="#9B5CFF" stroke-width="1"/>
  <text x="32" y="432" fill="#fff" font-family="system-ui, sans-serif" font-size="14">Dark</text>
  <path d="M350 422 l6 6-6 6" stroke="#9B5CFF" stroke-width="2" fill="none" stroke-linecap="round"/>
  <rect x="16" y="453" width="358" height="44" rx="8" fill="#0A0A12" stroke="#1A1A3A" stroke-width="1"/>
  <text x="32" y="480" fill="#c0b0d0" font-family="system-ui, sans-serif" font-size="14">Light</text>
  <rect x="16" y="501" width="358" height="44" rx="8" fill="#0A0A12" stroke="#1A1A3A" stroke-width="1"/>
  <text x="32" y="528" fill="#c0b0d0" font-family="system-ui, sans-serif" font-size="14">High Contrast</text>
  <rect x="16" y="549" width="358" height="44" rx="8" fill="#0A0A12" stroke="#1A1A3A" stroke-width="1"/>
  <text x="32" y="576" fill="#c0b0d0" font-family="system-ui, sans-serif" font-size="14">AMOLED</text>

  <!-- Font Size -->
  <text x="30" y="625" fill="#6a5a8a" font-family="system-ui, sans-serif" font-size="12" font-weight="600" letter-spacing="0.5">FONT SIZE</text>
  <rect x="16" y="635" width="358" height="44" rx="8" fill="#0A0A12" stroke="#1A1A3A" stroke-width="1"/>
  <rect x="32" y="645" width="40" height="28" rx="6" fill="#12122A"/>
  <text x="52" y="664" text-anchor="middle" fill="#fff" font-family="system-ui, sans-serif" font-size="14" font-weight="600">A-</text>
  <text x="195" y="664" text-anchor="middle" fill="#c0b0d0" font-family="system-ui, sans-serif" font-size="14">16px</text>
  <rect x="318" y="645" width="40" height="28" rx="6" fill="#12122A"/>
  <text x="338" y="664" text-anchor="middle" fill="#fff" font-family="system-ui, sans-serif" font-size="14" font-weight="600">A+</text>

  <!-- About -->
  <text x="30" y="715" fill="#6a5a8a" font-family="system-ui, sans-serif" font-size="12" font-weight="600" letter-spacing="0.5">ABOUT</text>
  <rect x="16" y="725" width="358" height="60" rx="10" fill="#0A0A12" stroke="#1A1A3A" stroke-width="1"/>
  <text x="32" y="750" fill="#fff" font-family="system-ui, sans-serif" font-size="14" font-weight="600">VoiceNav Voice Browser v11.0.0</text>
  <text x="32" y="770" fill="#6a5a8a" font-family="system-ui, sans-serif" font-size="12">222 languages — PWA — Works offline</text>

  <rect x="140" y="828" width="110" height="5" rx="2.5" fill="#1A1A3A"/>
</svg>
