<svg xmlns="http://www.w3.org/2000/svg" viewBox="0 0 390 844" fill="none">
  <rect width="390" height="844" rx="40" fill="#000"/>

  <rect x="0" y="0" width="390" height="44" fill="#000"/>
  <text x="195" y="28" text-anchor="middle" fill="#fff" font-family="system-ui, sans-serif" font-size="14" font-weight="600">9:41</text>

  <rect x="16" y="60" width="36" height="36" rx="8" fill="#0A0A12"/>
  <path d="M37 70 h-10 m5-5 l-5 5 5 5" stroke="#c0b0d0" stroke-width="1.8" fill="none" stroke-linecap="round"/>
  <text x="64" y="84" fill="#fff" font-family="system-ui, sans-serif" font-size="24" font-weight="700">Settings</text>

  <!-- Voice Commands section -->
  <text x="30" y="125" fill="#6a5a8a" font-family="system-ui, sans-serif" font-size="12" font-weight="600" letter-spacing="0.5">VOICE COMMANDS</text>

  <rect x="16" y="135" width="358" height="40" rx="8" fill="#0A0A12" stroke="#1A1A3A" stroke-width="1"/>
  <text x="32" y="152" fill="#9B5CFF" font-family="'SF Mono', monospace" font-size="12">"Go to youtube.com"</text>
  <text x="210" y="152" fill="#c0b0d0" font-family="system-ui, sans-serif" font-size="12">Navigate to a website</text>

  <rect x="16" y="180" width="358" height="40" rx="8" fill="#0A0A12" stroke="#1A1A3A" stroke-width="1"/>
  <text x="32" y="197" fill="#9B5CFF" font-family="'SF Mono', monospace" font-size="12">"Search for weather"</text>
  <text x="210" y="197" fill="#c0b0d0" font-family="system-ui, sans-serif" font-size="12">Search the web</text>

  <rect x="16" y="225" width="358" height="40" rx="8" fill="#0A0A12" stroke="#1A1A3A" stroke-width="1"/>
  <text x="32" y="242" fill="#9B5CFF" font-family="'SF Mono', monospace" font-size="12">"Read this page"</text>
  <text x="210" y="242" fill="#c0b0d0" font-family="system-ui, sans-serif" font-size="12">Read page content aloud</text>

  <rect x="16" y="270" width="358" height="40" rx="8" fill="#0A0A12" stroke="#1A1A3A" stroke-width="1"/>
  <text x="32" y="287" fill="#9B5CFF" font-family="'SF Mono', monospace" font-size="12">"Find [text]"</text>
  <text x="210" y="287" fill="#c0b0d0" font-family="system-ui, sans-serif" font-size="12">Search on current page</text>

  <rect x="16" y="315" width="358" height="40" rx="8" fill="#0A0A12" stroke="#1A1A3A" stroke-width="1"/>
  <text x="32" y="332" fill="#9B5CFF" font-family="'SF Mono', monospace" font-size="12">"Go back"</text>
  <text x="210" y="332" fill="#c0b0d0" font-family="system-ui, sans-serif" font-size="12">Go to previous page</text>

  <rect x="16" y="360" width="358" height="40" rx="8" fill="#0A0A12" stroke="#1A1A3A" stroke-width="1"/>
  <text x="32" y="377" fill="#9B5CFF" font-family="'SF Mono', monospace" font-size="12">"Reload"</text>
  <text x="210" y="377" fill="#c0b0d0" font-family="system-ui, sans-serif" font-size="12">Refresh the page</text>

  <rect x="16" y="405" width="358" height="40" rx="8" fill="#0A0A12" stroke="#1A1A3A" stroke-width="1"/>
  <text x="32" y="422" fill="#9B5CFF" font-family="'SF Mono', monospace" font-size="12">"Scroll down"</text>
  <text x="210" y="422" fill="#c0b0d0" font-family="system-ui, sans-serif" font-size="12">Scroll the page down</text>

  <rect x="16" y="450" width="358" height="40" rx="8" fill="#0A0A12" stroke="#1A1A3A" stroke-width="1"/>
  <text x="32" y="467" fill="#9B5CFF" font-family="'SF Mono', monospace" font-size="12">"Bookmark"</text>
  <text x="210" y="467" fill="#c0b0d0" font-family="system-ui, sans-serif" font-size="12">Save current page</text>

  <rect x="16" y="495" width="358" height="40" rx="8" fill="#0A0A12" stroke="#1A1A3A" stroke-width="1"/>
  <text x="32" y="512" fill="#9B5CFF" font-family="'SF Mono', monospace" font-size="12">"New tab"</text>
  <text x="210" y="512" fill="#c0b0d0" font-family="system-ui, sans-serif" font-size="12">Open a new tab</text>

  <rect x="16" y="540" width="358" height="40" rx="8" fill="#0A0A12" stroke="#1A1A3A" stroke-width="1"/>
  <text x="32" y="557" fill="#9B5CFF" font-family="'SF Mono', monospace" font-size="12">"Zoom in"</text>
  <text x="210" y="557" fill="#c0b0d0" font-family="system-ui, sans-serif" font-size="12">Increase text size</text>

  <rect x="16" y="585" width="358" height="40" rx="8" fill="#0A0A12" stroke="#1A1A3A" stroke-width="1"/>
  <text x="32" y="602" fill="#9B5CFF" font-family="'SF Mono', monospace" font-size="12">"Stop speaking"</text>
  <text x="210" y="602" fill="#c0b0d0" font-family="system-ui, sans-serif" font-size="12">Stop reading aloud</text>

  <rect x="16" y="630" width="358" height="40" rx="8" fill="#0A0A12" stroke="#1A1A3A" stroke-width="1"/>
  <text x="32" y="647" fill="#9B5CFF" font-family="'SF Mono', monospace" font-size="12">"Help"</text>
  <text x="210" y="647" fill="#c0b0d0" font-family="system-ui, sans-serif" font-size="12">List all voice commands</text>

  <rect x="140" y="828" width="110" height="5" rx="2.5" fill="#1A1A3A"/>
</svg>
