<svg xmlns="http://www.w3.org/2000/svg" viewBox="0 0 390 844" fill="none">
  <defs>
    <linearGradient id="bgGrad" x1="0%" y1="0%" x2="0%" y2="100%">
      <stop offset="0%" style="stop-color:#0B0B1E"/>
      <stop offset="100%" style="stop-color:#0f0f28"/>
    </linearGradient>
    <linearGradient id="waveGrad" x1="0%" y1="0%" x2="100%" y2="0%">
      <stop offset="0%" style="stop-color:#00E5FF;stop-opacity:0.2"/>
      <stop offset="50%" style="stop-color:#00E5FF;stop-opacity:1"/>
      <stop offset="100%" style="stop-color:#00E5FF;stop-opacity:0.2"/>
    </linearGradient>
  </defs>

  <rect width="390" height="844" rx="40" fill="url(#bgGrad)"/>
  <rect x="0" y="0" width="390" height="44" fill="url(#bgGrad)"/>
  <text x="195" y="28" text-anchor="middle" fill="white" font-family="system-ui" font-size="14" font-weight="600">9:41</text>

  <!-- Waveform visualization -->
  <g transform="translate(40, 200)">
    <rect x="0" y="30" width="6" height="40" rx="3" fill="url(#waveGrad)" opacity="0.5"/>
    <rect x="12" y="20" width="6" height="60" rx="3" fill="url(#waveGrad)" opacity="0.6"/>
    <rect x="24" y="10" width="6" height="80" rx="3" fill="url(#waveGrad)" opacity="0.7"/>
    <rect x="36" y="5" width="6" height="90" rx="3" fill="url(#waveGrad)" opacity="0.8"/>
    <rect x="48" y="0" width="6" height="100" rx="3" fill="url(#waveGrad)" opacity="0.9"/>
    <rect x="60" y="5" width="6" height="90" rx="3" fill="url(#waveGrad)" opacity="1"/>
    <rect x="72" y="15" width="6" height="70" rx="3" fill="url(#waveGrad)" opacity="0.9"/>
    <rect x="84" y="5" width="6" height="90" rx="3" fill="url(#waveGrad)" opacity="1"/>
    <rect x="96" y="0" width="6" height="100" rx="3" fill="url(#waveGrad)" opacity="0.9"/>
    <rect x="108" y="10" width="6" height="80" rx="3" fill="url(#waveGrad)" opacity="0.8"/>
    <rect x="120" y="5" width="6" height="90" rx="3" fill="url(#waveGrad)" opacity="0.9"/>
    <rect x="132" y="0" width="6" height="100" rx="3" fill="url(#waveGrad)" opacity="1"/>
    <rect x="144" y="8" width="6" height="84" rx="3" fill="url(#waveGrad)" opacity="0.9"/>
    <rect x="156" y="15" width="6" height="70" rx="3" fill="url(#waveGrad)" opacity="0.8"/>
    <rect x="168" y="5" width="6" height="90" rx="3" fill="url(#waveGrad)" opacity="0.9"/>
    <rect x="180" y="0" width="6" height="100" rx="3" fill="url(#waveGrad)" opacity="1"/>
    <rect x="192" y="10" width="6" height="80" rx="3" fill="url(#waveGrad)" opacity="0.8"/>
    <rect x="204" y="20" width="6" height="60" rx="3" fill="url(#waveGrad)" opacity="0.7"/>
    <rect x="216" y="30" width="6" height="40" rx="3" fill="url(#waveGrad)" opacity="0.6"/>
    <rect x="228" y="20" width="6" height="60" rx="3" fill="url(#waveGrad)" opacity="0.7"/>
    <rect x="240" y="10" width="6" height="80" rx="3" fill="url(#waveGrad)" opacity="0.8"/>
    <rect x="252" y="5" width="6" height="90" rx="3" fill="url(#waveGrad)" opacity="0.9"/>
    <rect x="264" y="15" width="6" height="70" rx="3" fill="url(#waveGrad)" opacity="0.8"/>
    <rect x="276" y="25" width="6" height="50" rx="3" fill="url(#waveGrad)" opacity="0.6"/>
    <rect x="288" y="35" width="6" height="30" rx="3" fill="url(#waveGrad)" opacity="0.5"/>
    <rect x="300" y="25" width="6" height="50" rx="3" fill="url(#waveGrad)" opacity="0.6"/>
  </g>

  <!-- Command recognized -->
  <rect x="60" y="340" width="270" height="60" rx="20" fill="#13132D" stroke="#00E5FF" stroke-width="1.5"/>
  <text x="195" y="365" text-anchor="middle" fill="#00E5FF" font-family="system-ui" font-size="11" font-weight="600">COMMAND RECOGNIZED</text>
  <text x="195" y="385" text-anchor="middle" fill="white" font-family="system-ui" font-size="16" font-weight="700">"Go to Amazon"</text>

  <!-- Intent display -->
  <rect x="60" y="420" width="120" height="44" rx="12" fill="#7C5CFC15" stroke="#7C5CFC" stroke-width="1"/>
  <text x="120" y="438" text-anchor="middle" fill="#7C5CFC" font-family="system-ui" font-size="10" font-weight="600">INTENT</text>
  <text x="120" y="455" text-anchor="middle" fill="white" font-family="system-ui" font-size="13" font-weight="600">navigate</text>
  <rect x="210" y="420" width="120" height="44" rx="12" fill="#00E67615" stroke="#00E676" stroke-width="1"/>
  <text x="270" y="438" text-anchor="middle" fill="#00E676" font-family="system-ui" font-size="10" font-weight="600">CONFIDENCE</text>
  <text x="270" y="455" text-anchor="middle" fill="white" font-family="system-ui" font-size="13" font-weight="600">95%</text>

  <!-- Processing indicator -->
  <rect x="100" y="500" width="190" height="36" rx="18" fill="#13132D"/>
  <circle cx="120" cy="518" r="6" fill="#00E5FF">
    <animate attributeName="opacity" values="1;0.3;1" dur="1s" repeatCount="indefinite"/>
  </circle>
  <text x="155" y="523" fill="#B0B0D0" font-family="system-ui" font-size="12">Navigating to Amazon...</text>

  <!-- Recent commands -->
  <text x="45" y="580" fill="#7C5CFC" font-family="system-ui" font-size="11" font-weight="700" letter-spacing="2">RECENT COMMANDS</text>
  <rect x="30" y="590" width="330" height="40" rx="12" fill="#13132D"/>
  <text x="50" y="615" fill="#6A6A8A" font-family="system-ui" font-size="12">&#8226;</text>
  <text x="70" y="615" fill="white" font-family="system-ui" font-size="12">search for headphones</text>
  <text x="340" y="615" fill="#00E5FF" font-family="system-ui" font-size="10">&#10003;</text>
  <rect x="30" y="638" width="330" height="40" rx="12" fill="#13132D"/>
  <text x="50" y="663" fill="#6A6A8A" font-family="system-ui" font-size="12">&#8226;</text>
  <text x="70" y="663" fill="white" font-family="system-ui" font-size="12">click the first result</text>
  <text x="340" y="663" fill="#00E5FF" font-family="system-ui" font-size="10">&#10003;</text>
  <rect x="30" y="686" width="330" height="40" rx="12" fill="#13132D"/>
  <text x="50" y="711" fill="#6A6A8A" font-family="system-ui" font-size="12">&#8226;</text>
  <text x="70" y="711" fill="white" font-family="system-ui" font-size="12">add to cart</text>
  <text x="340" y="711" fill="#00E5FF" font-family="system-ui" font-size="10">&#10003;</text>

  <rect x="0" y="800" width="390" height="44" fill="#0B0B1E"/>
  <rect x="140" y="808" width="110" height="5" rx="2.5" fill="#333"/>
</svg>
