<svg xmlns="http://www.w3.org/2000/svg" viewBox="0 0 390 844" fill="none">
  <defs>
    <linearGradient id="bgGrad" x1="0%" y1="0%" x2="0%" y2="100%">
      <stop offset="0%" stop-color="#080818"/>
      <stop offset="100%" stop-color="#0a0a1f"/>
    </linearGradient>
    <linearGradient id="waveGrad" x1="0%" y1="0%" x2="100%" y2="0%">
      <stop offset="0%" stop-color="#22d3ee" stop-opacity="0.15"/>
      <stop offset="50%" stop-color="#22d3ee" stop-opacity="0.8"/>
      <stop offset="100%" stop-color="#22d3ee" stop-opacity="0.15"/>
    </linearGradient>
  </defs>

  <rect width="390" height="844" rx="40" fill="url(#bgGrad)"/>
  <rect x="0" y="0" width="390" height="44" fill="url(#bgGrad)"/>
  <text x="195" y="28" text-anchor="middle" fill="#f8fafc" font-family="'SF Pro Text', system-ui, sans-serif" font-size="14" font-weight="600">9:41</text>

  <!-- Waveform visualization -->
  <g transform="translate(40, 200)">
    <rect x="0" y="30" width="6" height="40" rx="3" fill="url(#waveGrad)" opacity="0.4"/>
    <rect x="12" y="20" width="6" height="60" rx="3" fill="url(#waveGrad)" opacity="0.5"/>
    <rect x="24" y="10" width="6" height="80" rx="3" fill="url(#waveGrad)" opacity="0.6"/>
    <rect x="36" y="5" width="6" height="90" rx="3" fill="url(#waveGrad)" opacity="0.7"/>
    <rect x="48" y="0" width="6" height="100" rx="3" fill="url(#waveGrad)" opacity="0.8"/>
    <rect x="60" y="5" width="6" height="90" rx="3" fill="url(#waveGrad)" opacity="0.9"/>
    <rect x="72" y="15" width="6" height="70" rx="3" fill="url(#waveGrad)" opacity="0.8"/>
    <rect x="84" y="5" width="6" height="90" rx="3" fill="url(#waveGrad)" opacity="0.9"/>
    <rect x="96" y="0" width="6" height="100" rx="3" fill="url(#waveGrad)" opacity="1"/>
    <rect x="108" y="10" width="6" height="80" rx="3" fill="url(#waveGrad)" opacity="0.9"/>
    <rect x="120" y="5" width="6" height="90" rx="3" fill="url(#waveGrad)" opacity="1"/>
    <rect x="132" y="0" width="6" height="100" rx="3" fill="url(#waveGrad)" opacity="0.9"/>
    <rect x="144" y="8" width="6" height="84" rx="3" fill="url(#waveGrad)" opacity="0.8"/>
    <rect x="156" y="15" width="6" height="70" rx="3" fill="url(#waveGrad)" opacity="0.7"/>
    <rect x="168" y="5" width="6" height="90" rx="3" fill="url(#waveGrad)" opacity="0.8"/>
    <rect x="180" y="0" width="6" height="100" rx="3" fill="url(#waveGrad)" opacity="0.9"/>
    <rect x="192" y="10" width="6" height="80" rx="3" fill="url(#waveGrad)" opacity="0.8"/>
    <rect x="204" y="20" width="6" height="60" rx="3" fill="url(#waveGrad)" opacity="0.7"/>
    <rect x="216" y="30" width="6" height="40" rx="3" fill="url(#waveGrad)" opacity="0.6"/>
    <rect x="228" y="20" width="6" height="60" rx="3" fill="url(#waveGrad)" opacity="0.7"/>
    <rect x="240" y="10" width="6" height="80" rx="3" fill="url(#waveGrad)" opacity="0.8"/>
    <rect x="252" y="5" width="6" height="90" rx="3" fill="url(#waveGrad)" opacity="0.9"/>
    <rect x="264" y="15" width="6" height="70" rx="3" fill="url(#waveGrad)" opacity="0.8"/>
    <rect x="276" y="25" width="6" height="50" rx="3" fill="url(#waveGrad)" opacity="0.6"/>
    <rect x="288" y="35" width="6" height="30" rx="3" fill="url(#waveGrad)" opacity="0.5"/>
    <rect x="300" y="25" width="6" height="50" rx="3" fill="url(#waveGrad)" opacity="0.6"/>
  </g>

  <!-- Command recognized -->
  <rect x="60" y="340" width="270" height="60" rx="20" fill="rgba(30,27,75,0.6)" stroke="rgba(6,182,212,0.3)" stroke-width="1.5"/>
  <text x="195" y="365" text-anchor="middle" fill="#22d3ee" font-family="'SF Pro Text', system-ui, sans-serif" font-size="11" font-weight="600">COMMAND RECOGNIZED</text>
  <text x="195" y="385" text-anchor="middle" fill="#f8fafc" font-family="'SF Pro Text', system-ui, sans-serif" font-size="16" font-weight="700">"Go to Amazon"</text>

  <!-- Intent display -->
  <rect x="60" y="420" width="120" height="44" rx="12" fill="rgba(99,102,241,0.08)" stroke="rgba(99,102,241,0.2)" stroke-width="1"/>
  <text x="120" y="438" text-anchor="middle" fill="#818cf8" font-family="'SF Pro Text', system-ui, sans-serif" font-size="10" font-weight="600">INTENT</text>
  <text x="120" y="455" text-anchor="middle" fill="#f8fafc" font-family="'SF Pro Text', system-ui, sans-serif" font-size="13" font-weight="600">navigate</text>
  <rect x="210" y="420" width="120" height="44" rx="12" fill="rgba(34,197,94,0.08)" stroke="rgba(34,197,94,0.2)" stroke-width="1"/>
  <text x="270" y="438" text-anchor="middle" fill="#22c55e" font-family="'SF Pro Text', system-ui, sans-serif" font-size="10" font-weight="600">CONFIDENCE</text>
  <text x="270" y="455" text-anchor="middle" fill="#f8fafc" font-family="'SF Pro Text', system-ui, sans-serif" font-size="13" font-weight="600">95%</text>

  <!-- Processing indicator -->
  <rect x="100" y="500" width="190" height="36" rx="18" fill="rgba(30,27,75,0.5)"/>
  <circle cx="120" cy="518" r="6" fill="#22d3ee">
    <animate attributeName="opacity" values="1;0.3;1" dur="1s" repeatCount="indefinite"/>
  </circle>
  <text x="155" y="523" fill="#94a3b8" font-family="'SF Pro Text', system-ui, sans-serif" font-size="12">Navigating to Amazon...</text>

  <!-- Recent commands -->
  <text x="45" y="580" fill="#818cf8" font-family="'SF Pro Text', system-ui, sans-serif" font-size="11" font-weight="700" letter-spacing="2">RECENT COMMANDS</text>

  <rect x="30" y="590" width="330" height="40" rx="12" fill="rgba(30,27,75,0.5)" stroke="rgba(99,102,241,0.06)" stroke-width="1"/>
  <circle cx="50" cy="610" r="4" fill="#64748b"/>
  <text x="70" y="615" fill="#f8fafc" font-family="'SF Pro Text', system-ui, sans-serif" font-size="12">search for headphones</text>
  <circle cx="340" cy="610" r="8" fill="rgba(34,197,94,0.1)"/>
  <text x="340" y="614" text-anchor="middle" fill="#22c55e" font-family="system-ui" font-size="10">check</text>

  <rect x="30" y="638" width="330" height="40" rx="12" fill="rgba(30,27,75,0.5)" stroke="rgba(99,102,241,0.06)" stroke-width="1"/>
  <circle cx="50" cy="658" r="4" fill="#64748b"/>
  <text x="70" y="663" fill="#f8fafc" font-family="'SF Pro Text', system-ui, sans-serif" font-size="12">click the first result</text>
  <circle cx="340" cy="658" r="8" fill="rgba(34,197,94,0.1)"/>
  <text x="340" y="662" text-anchor="middle" fill="#22c55e" font-family="system-ui" font-size="10">check</text>

  <rect x="30" y="686" width="330" height="40" rx="12" fill="rgba(30,27,75,0.5)" stroke="rgba(99,102,241,0.06)" stroke-width="1"/>
  <circle cx="50" cy="706" r="4" fill="#64748b"/>
  <text x="70" y="711" fill="#f8fafc" font-family="'SF Pro Text', system-ui, sans-serif" font-size="12">add to cart</text>
  <circle cx="340" cy="706" r="8" fill="rgba(34,197,94,0.1)"/>
  <text x="340" y="710" text-anchor="middle" fill="#22c55e" font-family="system-ui" font-size="10">check</text>

  <rect x="0" y="800" width="390" height="44" fill="#080818"/>
  <rect x="140" y="808" width="110" height="5" rx="2.5" fill="#1e1b4b"/>
</svg>
